<svg width="24" height="23" viewBox="0 0 24 23" fill="none" xmlns="http://www.w3.org/2000/svg">
  <path d="M23.9931 15.2693H22.3325L21.4297 0.110107H17.6813V2.32202C17.6813 4.35312 16.5979 6.22966 14.8391 7.24516C13.0802 8.26066 10.9131 8.26071 9.15401 7.24516C7.39494 6.22961 6.31176 4.35307 6.31176 2.32202V0.110107H2.56314L1.6606 15.2693H0V16.5372L1.59158 16.5373L1.29535 21.588L2.19672e-05 21.5879V22.849H7.57964V21.5879H6.31182V16.5372H17.6815V21.5879L16.4204 21.5877V22.8488H24V21.5877H22.6978L22.4015 16.537H23.9933L23.9931 15.2693ZM8.20659 15.2693H6.31189V6.31165C6.82077 7.0379 7.46396 7.66009 8.20677 8.14461L8.20659 15.2693ZM11.3693 15.2693H9.46763V8.78518C10.0767 9.02639 10.7171 9.17953 11.3695 9.23993L11.3693 15.2693ZM14.5253 15.2693H12.6236V9.24011C13.276 9.17972 13.9164 9.02659 14.5254 8.78536L14.5253 15.2693ZM17.6812 15.2693H15.7863V8.13756C16.5292 7.65305 17.1723 7.03103 17.6812 6.30479V15.2693Z" fill="#D4C4ED" />
</svg>
