<svg width="24" height="24" viewBox="0 0 24 24" fill="none" xmlns="http://www.w3.org/2000/svg">
  <g clip-path="url(#clip0_6600_388425)">
    <path d="M20.4978 16.7285C19.8651 16.9562 18.8275 17.2346 17.6887 17.4877C17.2837 18.1457 16.5499 18.7025 15.3856 18.9304C15.1072 18.981 14.8036 19.0063 14.4746 19.0063C13.6646 19.0315 12.7283 18.9556 11.6654 18.8545C11.5895 18.8545 11.5136 18.8545 11.4377 18.8292C11.1846 18.804 10.9568 18.6015 10.9316 18.3483C10.9064 18.0193 11.1847 17.7663 11.4884 17.7916C11.5643 17.7916 11.6656 17.8168 11.7415 17.8168C13.108 17.9434 14.3734 18.0445 15.1833 17.8927C16.6764 17.6143 17.1067 16.7033 17.0055 15.944C16.9296 15.3113 16.4739 14.7293 15.7148 14.7798C14.6519 14.8557 13.4118 14.7797 12.2224 14.6786C10.8558 14.5774 9.43844 14.552 8.42623 14.6534C7.31265 14.7799 5.03507 15.6151 3.03573 16.9564C2.04873 17.6143 0.960419 18.4242 0.302513 18.9051C-0.0265387 19.1583 -0.102448 19.6137 0.150695 19.9428L3.06097 23.7136C3.31412 24.0427 3.76958 24.0932 4.09862 23.8402L5.16154 23.0051C5.41469 22.8026 5.74357 22.7519 6.04739 22.8532C7.99612 23.4859 10.0967 23.8909 11.4632 23.9668C14.4748 24.1689 20.2196 20.6258 21.8646 19.487C23.5095 18.3482 22.32 16.0705 20.4979 16.7285L20.4978 16.7285Z" fill="#D4C4ED" />
    <circle cx="13" cy="6" r="6" fill="#D4C4ED" />
  </g>
  <defs>
    <clipPath id="clip0_6600_388425">
      <rect width="24" height="24" fill="white" />
    </clipPath>
  </defs>
</svg>
