<svg width="32" height="27" viewBox="0 0 32 27" fill="none" xmlns="http://www.w3.org/2000/svg">
  <path d="M15.7915 8.69903C15.7915 8.56188 15.243 8.0133 13.1858 7.60186C10.58 7.05328 7.01425 7.05328 4.40849 7.60186C2.35131 8.0133 1.80273 8.56188 1.80273 8.69903C1.80273 8.83617 2.41989 9.31618 4.27135 9.72761V8.90474C4.27135 8.49331 4.54564 8.21902 4.95707 8.21902H12.6372C13.0486 8.21902 13.3229 8.49331 13.3229 8.90474V9.72761C15.243 9.31618 15.7915 8.7676 15.7915 8.69903Z" fill="#D4C4ED"/>
  <path d="M11.9513 9.65894H5.64258V11.1675C5.64258 12.8818 7.0826 14.3219 8.79691 14.3219C10.5112 14.3219 11.9513 12.8818 11.9513 11.1675V9.65894Z" fill="#D4C4ED"/>
  <path d="M12.6369 6.09321V5.20177C12.6369 3.83031 11.5398 2.73315 10.1683 2.73315H7.4254C6.05395 2.73315 4.95679 3.83031 4.95679 5.20177V6.09321C7.35683 5.75035 10.2369 5.75035 12.6369 6.09321Z" fill="#D4C4ED"/>
  <path d="M0.5 26.1854H3.2429V17.8877C1.59716 19.3963 0.5 21.5906 0.5 23.9907V26.1854Z" fill="#D4C4ED"/>
  <path d="M4.54541 26.1853H13.0484V20.6995H4.54541V26.1853Z" fill="#D4C4ED"/>
  <path d="M4.54541 16.7904V19.259H5.16256V16.4475C4.95685 16.5847 4.75113 16.7218 4.54541 16.7904Z" fill="#D4C4ED"/>
  <path d="M6.53442 15.9676V19.2591H11.0602V15.9676C10.3745 15.7619 9.62019 15.6248 8.79732 15.6248C8.04302 15.6248 7.28872 15.7619 6.53442 15.9676Z" fill="#D4C4ED"/>
  <path d="M12.4309 19.259H13.0481V16.7904C12.8423 16.6532 12.6366 16.5847 12.4309 16.4475V19.259Z" fill="#D4C4ED"/>
  <path d="M14.4199 19.9449V26.185H17.1628V23.9907C17.1628 21.5906 16.1342 19.3963 14.4199 17.8877V19.9449Z" fill="#D4C4ED"/>
  <path d="M28.7521 4.76172C28.3407 4.76172 28.0664 5.03601 28.0664 5.44744V11.3447C28.0664 12.4418 27.175 13.3333 26.1464 13.4019V5.44744C26.1464 5.03601 25.8721 4.76172 25.4606 4.76172C25.0492 4.76172 24.7749 5.03601 24.7749 5.44744V13.4019H22.992V5.44744C22.992 5.03601 22.7177 4.76172 22.3063 4.76172C21.8949 4.76172 21.6206 5.03601 21.6206 5.44744V13.4019C20.5234 13.3333 19.7006 12.4418 19.7006 11.3447V5.44744C19.7006 5.03601 19.4263 4.76172 19.0148 4.76172C18.6034 4.76172 18.3291 5.03601 18.3291 5.44744V11.3447C18.3291 13.2647 19.8377 14.7733 21.7577 14.7733H23.1978V26.0474C23.1978 26.4588 23.472 26.7331 23.8835 26.7331C24.2949 26.7331 24.5692 26.4588 24.5692 26.0474V14.8415H26.0092C27.9293 14.8415 29.4379 13.3329 29.4379 11.4129V5.51562C29.4379 5.10419 29.1636 4.76172 28.7521 4.76172Z" fill="#D4C4ED"/>
  <path d="M31.3125 0.735178C31.3125 0.735178 29.4973 1.22261 28.8712 3.36049C28.8712 3.36049 26.5982 0.680715 22.3613 1.05139C18.1245 1.42207 15.6924 5.12722 15.6924 5.12722C15.6924 5.12722 17.6764 8.11008 22.9599 7.67274C26.5135 7.37869 28.9345 4.19319 28.9345 4.19319C28.9345 4.19319 29.9692 6.17744 31.8582 6.32345L31.3125 0.735178ZM19.2274 4.52676C18.9841 4.54804 18.7705 4.3681 18.7492 4.12557C18.7279 3.88229 18.9074 3.66871 19.1504 3.64745C19.3932 3.62621 19.6073 3.80561 19.6285 4.04864C19.65 4.29115 19.4706 4.50547 19.2274 4.52676Z" fill="url(#paint0_linear_6543_376606)"/>
  <defs>
  <linearGradient id="paint0_linear_6543_376606" x1="15.5" y1="5.00006" x2="32.5" y2="4.00006" gradientUnits="userSpaceOnUse">
  <stop stop-color="#F25385"/>
  <stop offset="0.241256" stop-color="#6053F2"/>
  <stop offset="0.496116" stop-color="#53F280"/>
  <stop offset="0.739894" stop-color="#EFF253"/>
  <stop offset="1" stop-color="#F25353"/>
  </linearGradient>
  </defs>
</svg>
