<svg width="29" height="29" viewBox="0 0 29 29" fill="none" xmlns="http://www.w3.org/2000/svg">
  <path d="M28.9997 4.51085C28.9997 5.52898 28.1877 6.44424 26.8281 7.23044C24.6662 8.29086 22.3064 8.88805 19.9005 8.98333C19.6879 8.88017 19.4816 8.78352 19.2562 8.69969C16.5834 7.67816 13.7395 7.17942 10.8786 7.23045C10.4082 7.23045 9.94435 7.23045 9.48675 7.26259L9.42224 7.23045C8.06245 6.47009 7.25064 5.52929 7.25064 4.51086C7.25064 2.01043 12.1225 0 18.1282 0C24.1346 0 29 2.01067 29 4.51086L28.9997 4.51085ZM9.09963 9.10577C9.6795 9.06711 10.2724 9.04127 10.8781 9.04127C14.3967 9.04127 17.522 9.73736 19.5134 10.8198C20.9442 11.5866 21.7498 12.5468 21.7498 13.5715C21.748 13.7913 21.7089 14.0093 21.6338 14.2158C21.2353 15.1054 20.5343 15.8246 19.6555 16.2458H19.6103C17.6255 17.3478 14.4548 18.0632 10.9105 18.0632C8.03048 18.1378 5.16957 17.5744 2.53301 16.4135C2.42715 16.3627 2.32398 16.307 2.22374 16.2458C0.812508 15.5306 0.000416592 14.5961 0.000416592 13.5715C0.000416592 11.606 3.02271 9.91756 7.2502 9.3053C7.84313 9.21517 8.46167 9.15067 9.09976 9.10571L9.09963 9.10577ZM23.5607 13.5717V13.5715C23.5308 12.4212 23.0383 11.3315 22.1944 10.5492C23.6742 10.3327 25.1232 9.94324 26.5122 9.38921C27.4065 9.03049 28.2444 8.54432 28.9995 7.94581V9.96931C28.9995 11.0648 28.0652 12.0701 26.5184 12.8498C25.5632 13.3087 24.5574 13.6548 23.522 13.881V13.578L23.5607 13.5717ZM21.7498 18.9911C21.7498 20.0092 20.9377 20.9245 19.5782 21.7107L19.2624 21.8718C17.271 22.8837 14.2487 23.5216 10.8848 23.5216C7.32106 23.5409 4.18915 22.8579 2.17187 21.73C0.812304 20.9696 0.000270412 20.0288 0.000270412 18.9911V17.0062C0.754766 17.6059 1.59292 18.0923 2.48764 18.4499C5.16091 19.4696 8.00455 19.9684 10.8652 19.9191C13.7259 19.9688 16.5695 19.47 19.2427 18.4499C19.6857 18.2633 20.1164 18.048 20.5314 17.8055C20.8699 17.6127 21.1949 17.3973 21.5044 17.1611L21.7494 16.9678L21.7498 18.9911ZM23.5607 18.9911V15.7303C24.5689 15.5163 25.5565 15.2145 26.5122 14.8281C27.408 14.4698 28.2462 13.9812 28.9995 13.3782V15.3889C28.9647 16.0609 28.6604 16.6904 28.1554 17.1353C27.2338 18.0568 25.61 18.8171 23.5478 19.3134C23.5541 19.2167 23.5607 19.1136 23.5607 18.9911ZM10.8781 25.3582C13.7389 25.4079 16.5827 24.9092 19.2557 23.889C20.15 23.5303 20.9878 23.0441 21.743 22.4456V24.4498C21.743 26.9502 16.8712 28.9606 10.8712 28.9606C4.87174 28.9606 0 26.95 0 24.4498V22.4456C0.756107 23.0428 1.59374 23.5289 2.48737 23.889C5.16467 24.9105 8.0128 25.4093 10.8776 25.3582H10.8781Z" fill="#D4C4ED"/>
</svg>
