<svg width="24" height="24" viewBox="0 0 24 24" fill="none" xmlns="http://www.w3.org/2000/svg">
  <path d="M9.8 11.4762C9.8 10.3238 10.79 9.38095 12 9.38095C13.21 9.38095 14.2 10.3238 14.2 11.4762C14.2 12.6286 13.21 13.5714 12 13.5714C10.79 13.5714 9.8 12.6286 9.8 11.4762ZM8.11293 16.7496C7.69866 17.1441 7.0511 17.1553 6.62351 16.7752C6.14252 16.3476 6.12968 15.6003 6.59569 15.1565L7.38 14.4095C6.83 13.5714 6.5 12.5238 6.5 11.4762C6.5 10.4286 6.83 9.38095 7.38 8.64762L6.58101 7.88668C6.11788 7.4456 6.11788 6.70679 6.58101 6.26571C7.02411 5.8437 7.72399 5.85577 8.15228 6.2928L8.92 7.07619C9.8 6.55238 10.9 6.2381 12 6.2381C13.1 6.2381 14.2 6.55238 15.08 7.07619L15.9975 6.20234C16.4077 5.8117 17.0523 5.8117 17.4625 6.20234C17.9019 6.62089 17.9019 7.32196 17.4625 7.74051L16.62 8.54286C17.17 9.38095 17.5 10.4286 17.5 11.4762C17.5 12.5238 17.17 13.5714 16.62 14.4095L17.4625 15.2119C17.9019 15.6304 17.9019 16.3315 17.4625 16.75C17.0523 17.1407 16.4077 17.1407 15.9975 16.75L15.08 15.8762C14.2 16.4 13.1 16.7143 12 16.7143C10.9 16.7143 9.8 16.4 9.03 15.8762L8.11293 16.7496ZM12 8.33333C10.13 8.33333 8.7 9.69524 8.7 11.4762C8.7 13.2571 10.13 14.619 12 14.619C13.87 14.619 15.3 13.2571 15.3 11.4762C15.3 9.69524 13.87 8.33333 12 8.33333ZM20.8 1C22.01 1 23 1.94286 23 3.09524V19.8571C23 21.0095 22.01 21.9524 20.8 21.9524H19.7C19.7 22.531 19.231 23 18.6524 23H16.3476C15.769 23 15.3 22.531 15.3 21.9524H8.7C8.7 22.531 8.23097 23 7.65238 23H5.34762C4.76904 23 4.3 22.531 4.3 21.9524H3.2C1.99 21.9524 1 21.0095 1 19.8571V3.09524C1 1.94286 1.99 1 3.2 1H20.8ZM20.8 19.8571V3.09524H3.2V19.8571H20.8Z" fill="#D4C4ED"/>
</svg>
