<svg width="22" height="20" viewBox="0 0 22 20" fill="none" xmlns="http://www.w3.org/2000/svg">
  <path d="M19.6807 17.5122H19.2124H17.9394H16.0585H13.7666H11.2579H8.72928H6.37755H4.39699H2.98445H2.33672C2.2844 17.5122 2.23208 17.5097 2.17977 17.5048C2.28938 17.5197 2.40149 17.5346 2.5111 17.5495C2.41145 17.5346 2.31679 17.5097 2.22461 17.47C2.32426 17.5122 2.42391 17.5544 2.52107 17.5942C2.44135 17.5594 2.36661 17.5147 2.29685 17.4626C2.38156 17.5271 2.46377 17.5917 2.54847 17.6562C2.47124 17.5967 2.40397 17.5296 2.34418 17.4526C2.40896 17.5371 2.47373 17.619 2.5385 17.7034C2.48619 17.6339 2.44383 17.5594 2.40647 17.48C2.44882 17.5793 2.49117 17.6786 2.53103 17.7754C2.49366 17.6835 2.46626 17.5892 2.45131 17.4899C2.46626 17.5991 2.4812 17.7109 2.49615 17.8201C2.47622 17.6488 2.48868 17.47 2.48868 17.2962V16.1938V12.4944V8.01534V4.1545C2.48868 3.54372 2.48619 2.93045 2.48868 2.31967C2.48868 2.26753 2.49117 2.21787 2.49615 2.16574C2.4812 2.27498 2.46626 2.38671 2.45131 2.49595C2.46626 2.39664 2.49117 2.30229 2.53103 2.21042C2.48868 2.30974 2.44633 2.40905 2.40647 2.50588C2.44134 2.42643 2.48619 2.35195 2.5385 2.28243C2.47373 2.36684 2.40895 2.44878 2.34418 2.53319C2.40397 2.45622 2.47124 2.38919 2.54847 2.3296C2.46376 2.39415 2.38155 2.45871 2.29685 2.52326C2.36661 2.47112 2.44135 2.42891 2.52107 2.39167C2.42142 2.43388 2.32177 2.47609 2.22461 2.51581C2.31678 2.47857 2.41145 2.45126 2.5111 2.43636C2.40149 2.45126 2.28938 2.46616 2.17977 2.48105C2.3691 2.45871 2.56342 2.4736 2.75275 2.4736H4.00831H5.87426H8.16868H10.6873H13.2284H15.5851H17.5806H19.0056H19.6583C19.7106 2.4736 19.7629 2.47609 19.8152 2.48105C19.7056 2.46616 19.5935 2.45126 19.4839 2.43636C19.5835 2.45126 19.6782 2.47609 19.7704 2.51581C19.6707 2.4736 19.5711 2.43139 19.4739 2.39167C19.5536 2.42643 19.6284 2.47112 19.6981 2.52326C19.6134 2.4587 19.5312 2.39415 19.4465 2.3296C19.5237 2.38919 19.591 2.45622 19.6508 2.53319C19.586 2.44877 19.5212 2.36684 19.4565 2.28243C19.5088 2.35194 19.5511 2.42643 19.5885 2.50588C19.5462 2.40657 19.5038 2.30726 19.4639 2.21042C19.5013 2.30229 19.5287 2.39664 19.5437 2.49595C19.5287 2.38671 19.5138 2.27498 19.4988 2.16574C19.5187 2.33705 19.5063 2.51582 19.5063 2.68962V3.79199V7.49143V11.9705V15.8313C19.5063 16.4421 19.5088 17.0554 19.5063 17.6662C19.5063 17.7183 19.5038 17.768 19.4988 17.8201C19.5138 17.7109 19.5287 17.5991 19.5437 17.4899C19.5287 17.5892 19.5038 17.6835 19.4639 17.7754C19.5063 17.6761 19.5486 17.5768 19.5885 17.48C19.5536 17.5594 19.5088 17.6339 19.4565 17.7034C19.5212 17.619 19.586 17.5371 19.6508 17.4526C19.591 17.5296 19.5237 17.5967 19.4465 17.6562C19.5312 17.5917 19.6134 17.5271 19.6981 17.4626C19.6284 17.5147 19.5536 17.5569 19.4739 17.5942C19.5736 17.552 19.6732 17.5097 19.7704 17.47C19.6782 17.5073 19.5835 17.5346 19.4839 17.5495C19.5935 17.5346 19.7056 17.5197 19.8152 17.5048C19.7704 17.5097 19.7255 17.5122 19.6807 17.5122C19.3593 17.5172 19.0305 17.6463 18.7988 17.8747C18.5821 18.0907 18.4201 18.4433 18.4351 18.7536C18.45 19.0739 18.5547 19.4066 18.7988 19.6326C19.0404 19.8535 19.3444 20.0025 19.6807 19.9951C20.2761 19.9851 20.7968 19.7666 21.2476 19.3818C21.4245 19.2328 21.5765 19.0342 21.6911 18.8356C21.8032 18.6394 21.9028 18.411 21.9427 18.1851C21.9776 17.9815 22 17.7853 22 17.5817V16.6556V14.9698V12.7675V10.2945V7.79182V5.49517V3.66779V2.54553V2.32455C21.995 1.5946 21.6612 0.929204 21.0857 0.484775C20.6697 0.164486 20.1764 0.000620784 19.6483 0.000620784H19.4041H18.3105H16.5666H14.3693H11.908H9.37939H6.97286H4.8852H3.30826H2.43134C2.37155 0.000620784 2.31176 -0.0018622 2.25197 0.00310347C1.66405 0.0403462 1.1384 0.251392 0.70741 0.656104C0.625199 0.733072 0.560426 0.82494 0.490673 0.914321C0.418429 1.00867 0.343688 1.09805 0.288882 1.20481C0.119475 1.53751 0.0522144 1.81064 0.0123546 2.17562C-0.0100667 2.37673 0.00488085 2.58529 0.00488085 2.78889V4.13957V6.12336V8.49696V11.0146V13.4353V15.516V17.0107C0.00488085 17.2316 0.00238963 17.4551 0.00488085 17.676C0.00737211 17.8846 0.0322845 18.1006 0.0870925 18.3017C0.24404 18.8604 0.600305 19.3023 1.07115 19.6301C1.12845 19.6698 1.19073 19.7045 1.25301 19.7343C1.4 19.8039 1.55944 19.8783 1.72136 19.9205C1.91567 19.9702 2.12245 19.9975 2.32176 20H2.36162H3.07163H4.5315H6.53447H8.89367H11.4148H13.9036H16.1681H18.0166H19.2523H19.6857C20.0046 20 20.341 19.861 20.5676 19.6375C20.7844 19.4215 20.9463 19.0689 20.9314 18.7586C20.9164 18.4383 20.8118 18.1056 20.5676 17.8797C20.3185 17.6537 20.0171 17.5122 19.6807 17.5122Z" fill="#D4C4ED" />
  <path d="M7.51123 14.4236V11.1537V10.6869C7.51123 10.3691 7.37172 10.0339 7.14751 9.80803C6.93077 9.59202 6.57703 9.43064 6.26562 9.44553C5.94425 9.46043 5.61042 9.56471 5.38374 9.80803C5.15953 10.0514 5.02002 10.3493 5.02002 10.6869V13.9568V14.4236C5.02002 14.7414 5.15953 15.0766 5.38374 15.3025C5.60048 15.5185 5.95422 15.6799 6.26562 15.665C6.587 15.6501 6.92083 15.5458 7.14751 15.3025C7.36923 15.0567 7.51123 14.7588 7.51123 14.4236Z" fill="#D4C4ED" />
  <path d="M12.2434 14.4235V13.5421V11.4267V8.87934V6.66464C12.2434 6.30462 12.2484 5.94463 12.2434 5.5871V5.5722C12.2434 5.25439 12.1039 4.9192 11.8797 4.69329C11.663 4.47728 11.3092 4.31589 10.9978 4.33079C10.6764 4.34568 10.3426 4.44996 10.1159 4.69329C9.89172 4.93661 9.75221 5.23455 9.75221 5.5722V6.45361V8.56902V11.1164V13.3311C9.75221 13.6911 9.74723 14.0511 9.75221 14.4087V14.4235C9.75221 14.7414 9.89172 15.0765 10.1159 15.3025C10.3327 15.5185 10.6864 15.6799 10.9978 15.665C11.3192 15.6501 11.653 15.5458 11.8797 15.3025C12.1014 15.0567 12.2434 14.7587 12.2434 14.4235Z" fill="#D4C4ED" />
  <path d="M16.977 14.4236V12.2884V8.91169V8.12957C16.977 7.81177 16.8375 7.47657 16.6133 7.25066C16.3966 7.03465 16.0429 6.87326 15.7314 6.88816C15.4101 6.90306 15.0762 7.00734 14.8496 7.25066C14.6253 7.49398 14.4858 7.79193 14.4858 8.12957V10.2648V13.6415V14.4236C14.4858 14.7414 14.6253 15.0766 14.8496 15.3025C15.0663 15.5185 15.42 15.6799 15.7314 15.665C16.0528 15.6501 16.3866 15.5459 16.6133 15.3025C16.835 15.0567 16.977 14.7588 16.977 14.4236Z" fill="#D4C4ED" />
</svg>
