<svg width="25" height="18" viewBox="0 0 25 18" fill="none" xmlns="http://www.w3.org/2000/svg">
  <path d="M7.96773 2.76103L7.86 11.13L10.2652 10.6872C11.0603 10.6872 11.4613 11.6463 10.8996 12.2109L6.21357 16.897C6.03578 17.0712 5.80916 17.1622 5.58235 17.1622C5.35234 17.1622 5.12552 17.0716 4.94791 16.897L0.261847 12.2109C-0.29942 11.646 0.1016 10.6872 0.896283 10.6872L3.3 11.13L3.19375 2.76103C3.19375 1.44317 4.2621 0.374268 5.58051 0.374268C6.89939 0.374268 7.96773 1.44317 7.96773 2.76103Z" fill="#D4C4ED" />
  <path d="M16.1939 14.7753L16.3016 6.40635L13.8964 6.84923C13.1014 6.84923 12.7004 5.89012 13.262 5.32549L17.9481 0.639423C18.1258 0.465221 18.3525 0.37414 18.5793 0.37414C18.8093 0.37414 19.0361 0.464823 19.2137 0.639423L23.8998 5.32549C24.461 5.89033 24.06 6.84923 23.2653 6.84923L20.8616 6.40635L20.9679 14.7753C20.9679 16.0932 19.8995 17.1621 18.5811 17.1621C17.2622 17.1621 16.1939 16.0932 16.1939 14.7753Z" fill="#D4C4ED" />
</svg>
