<svg width="21" height="17" viewBox="0 0 21 17" fill="none" xmlns="http://www.w3.org/2000/svg">
<path d="M17.7337 1.34427C16.4113 0.716277 14.9973 0.259878 13.5191 0C13.3375 0.333154 13.1254 0.781253 12.9792 1.13771C11.4078 0.897847 9.85083 0.897847 8.30832 1.13771C8.16211 0.781253 7.94519 0.333154 7.76202 0C6.28218 0.259878 4.86661 0.717954 3.54423 1.34759C0.876984 5.43864 0.153937 9.42808 0.515461 13.3609C2.28452 14.7018 3.99895 15.5163 5.68445 16.0494C6.10061 15.468 6.47177 14.85 6.79151 14.1987C6.18255 13.9639 5.59929 13.674 5.04818 13.3376C5.19439 13.2276 5.3374 13.1127 5.47557 12.9944C8.83694 14.5902 12.4891 14.5902 15.8103 12.9944C15.9501 13.1127 16.0931 13.2276 16.2377 13.3376C15.685 13.6757 15.1002 13.9655 14.4912 14.2004C14.8109 14.85 15.1805 15.4697 15.5983 16.051C17.2854 15.518 19.0014 14.7035 20.7705 13.3609C21.1947 8.80176 20.0458 4.84897 17.7337 1.34427ZM7.24945 10.9422C6.2404 10.9422 5.4129 9.98609 5.4129 8.82174C5.4129 7.65739 6.22273 6.6996 7.24945 6.6996C8.2762 6.6996 9.10367 7.65572 9.086 8.82174C9.08759 9.98609 8.2762 10.9422 7.24945 10.9422ZM14.0365 10.9422C13.0274 10.9422 12.1999 9.98609 12.1999 8.82174C12.1999 7.65739 13.0097 6.6996 14.0365 6.6996C15.0632 6.6996 15.8907 7.65572 15.873 8.82174C15.873 9.98609 15.0632 10.9422 14.0365 10.9422Z" fill="white" fill-opacity="0.6"/>
</svg>
