<svg width="20" height="21" viewBox="0 0 20 21" fill="none" xmlns="http://www.w3.org/2000/svg">
<path fill-rule="evenodd" clip-rule="evenodd" d="M9.99907 0.996811C4.47773 0.996811 0 5.47396 0 10.9971C0 15.4147 2.86504 19.1632 6.83876 20.486C7.33909 20.5776 7.52141 20.2687 7.52141 20.0036C7.52141 19.766 7.51281 19.1373 7.5079 18.303C4.72636 18.9072 4.13949 16.9623 4.13949 16.9623C3.68459 15.807 3.02896 15.4995 3.02896 15.4995C2.121 14.8795 3.0977 14.8916 3.0977 14.8916C4.10141 14.9623 4.62936 15.9225 4.62936 15.9225C5.52134 17.4503 6.97014 17.009 7.53983 16.753C7.63069 16.1072 7.88913 15.6665 8.17459 15.4166C5.95414 15.1636 3.61951 14.306 3.61951 10.4741C3.61951 9.38198 4.00934 8.49001 4.64901 7.79078C4.54589 7.53786 4.20271 6.52123 4.74723 5.14427C4.74723 5.14427 5.58641 4.87539 7.49686 6.16886C8.2943 5.94724 9.15007 5.83674 10.0003 5.83244C10.8499 5.83674 11.7051 5.94724 12.5038 6.16886C14.413 4.87539 15.251 5.14427 15.251 5.14427C15.7967 6.52123 15.4536 7.53786 15.351 7.79078C15.9919 8.49001 16.3787 9.38198 16.3787 10.4741C16.3787 14.3158 14.0403 15.1612 11.8131 15.4086C12.1716 15.7173 12.4915 16.3276 12.4915 17.2607C12.4915 18.5972 12.4792 19.6757 12.4792 20.0036C12.4792 20.2712 12.6597 20.5825 13.1668 20.4849C17.1374 19.1595 20 15.414 20 10.9971C20 5.47396 15.5223 0.996811 9.99907 0.996811Z" fill="white" fill-opacity="0.6"/>
</svg>
