<svg width="20" height="17" viewBox="0 0 20 17" fill="none" xmlns="http://www.w3.org/2000/svg">
<path d="M9.23283 4.94488L9.27405 5.62456L8.58705 5.54134C6.08642 5.2223 3.90179 4.14034 2.04692 2.32323L1.1401 1.4216L0.906519 2.08742C0.411888 3.57163 0.727903 5.13908 1.75839 6.19329C2.30798 6.77587 2.18433 6.8591 1.23627 6.51232C0.906519 6.40135 0.617984 6.31812 0.590505 6.35974C0.494327 6.45683 0.824082 7.71912 1.08514 8.21847C1.44237 8.91203 2.17058 9.59172 2.96748 9.99398L3.64074 10.313L2.84382 10.3269C2.0744 10.3269 2.04692 10.3408 2.12936 10.6321C2.40415 11.5337 3.4896 12.4908 4.69869 12.9069L5.55056 13.1982L4.80861 13.6421C3.70943 14.2802 2.41789 14.6408 1.12636 14.6686C0.508066 14.6824 -0.000305176 14.7379 -0.000305176 14.7795C-0.000305176 14.9183 1.67595 15.695 2.65146 16.0002C5.57805 16.9018 9.0542 16.5135 11.6648 14.9737C13.5196 13.8779 15.3745 11.7001 16.2401 9.59172C16.7073 8.46815 17.1745 6.41522 17.1745 5.43038C17.1745 4.7923 17.2156 4.70908 17.985 3.94615C18.4385 3.50228 18.8644 3.01679 18.9469 2.87808C19.0842 2.61452 19.0706 2.61452 18.3697 2.85033C17.202 3.26647 17.037 3.21099 17.6142 2.58678C18.04 2.1429 18.5484 1.33838 18.5484 1.10257C18.5484 1.06095 18.3424 1.13031 18.1087 1.25515C17.8613 1.39386 17.3118 1.60193 16.8996 1.72677L16.1576 1.96258L15.4844 1.50483C15.1134 1.25515 14.5913 0.977725 14.3165 0.894499C13.6158 0.700302 12.5441 0.728045 11.9121 0.949983C10.1946 1.57419 9.10917 3.18323 9.23283 4.94488Z" fill="white" fill-opacity="0.6"/>
</svg>
