<svg width="1440" height="900" viewBox="0 0 1440 900" fill="none" xmlns="http://www.w3.org/2000/svg">
<g clip-path="url(#clip0_3881_2005137)">
<rect width="1440" height="900" fill="#020211"/>
<g opacity="0.5">
<path d="M446.59 417.177V742.659C468.29 736.306 492.107 729.847 518.358 723.494V424.906L446.59 417.177ZM453.682 463.129C453.682 453.177 459.504 444.177 468.078 438.882C468.819 438.565 480.145 433.8 488.296 440.682C488.508 440.894 488.825 441.106 489.037 441.318C489.143 441.424 489.249 441.529 489.355 441.635C489.566 441.847 489.884 442.165 490.096 442.482C490.307 442.8 490.625 443.118 490.837 443.329C491.048 443.647 491.26 443.859 491.472 444.177C491.683 444.494 491.895 444.812 492.107 445.129C492.636 446.082 493.165 447.141 493.695 448.306C493.8 448.624 493.906 448.835 494.012 449.153C494.118 449.365 494.224 449.682 494.224 449.894C494.33 450.212 494.436 450.529 494.541 450.847C494.647 451.271 494.753 451.694 494.965 452.224C495.071 452.647 495.177 453.177 495.282 453.706C495.388 454.235 495.494 454.765 495.6 455.294C495.706 455.506 495.706 455.824 495.706 456.141C496.023 458.047 496.235 460.165 496.341 462.388C496.341 462.706 496.341 463.024 496.341 463.341C496.341 463.659 496.341 463.977 496.341 464.4C496.341 465.141 496.341 465.777 496.341 466.518V524.541L453.471 524.329V463.129H453.682ZM453.365 563.929C453.365 549.212 466.385 536.718 482.157 536.082C482.792 536.082 483.427 536.082 484.168 536.082C487.238 536.082 490.201 536.612 492.848 537.459C492.954 537.777 493.059 538.2 493.165 538.624C493.271 539.047 493.377 539.471 493.483 539.894C493.589 540.318 493.695 540.741 493.8 541.271C493.906 541.8 494.012 542.224 494.118 542.753C494.224 543.282 494.33 543.812 494.436 544.341C494.541 545.188 494.753 546.035 494.859 546.988C495.071 548.576 495.282 550.271 495.494 552.177C495.6 553.341 495.706 554.506 495.812 555.671C495.812 556.094 495.917 556.518 495.917 557.047C495.917 557.894 496.023 558.635 496.023 559.482C496.023 560.435 496.129 561.388 496.129 562.447C496.129 563.4 496.235 564.353 496.235 565.306C496.235 567.318 496.341 569.541 496.341 571.765V625.553L453.471 627.565V563.929H453.365ZM453.682 716.718V669.388C453.682 662.082 456.858 655.094 462.151 649.694C467.337 644.294 474.535 640.588 482.474 639.741C487.555 639.212 492.424 639.847 496.553 641.541V710.471L453.682 716.718Z" fill="url(#paint0_linear_3881_2005137)"/>
<path d="M494.436 544.341C494.541 545.188 494.753 546.035 494.859 546.988C494.753 546.035 494.541 545.188 494.436 544.341Z" fill="url(#paint1_linear_3881_2005137)"/>
<path d="M496.553 466.518V524.541V466.518C496.553 453.388 493.483 445.871 489.46 441.635C493.483 445.871 496.553 453.388 496.553 466.518Z" fill="url(#paint2_linear_3881_2005137)"/>
<path d="M511.266 457.941V524.647L496.552 524.541V466.518C496.552 453.388 493.483 445.765 489.46 441.635C489.355 441.53 489.249 441.424 489.143 441.318C488.931 441.106 488.614 440.894 488.402 440.683C480.251 433.8 468.925 438.565 468.184 438.882C472.418 436.235 477.287 434.541 482.474 434.012C483.533 433.906 484.591 433.906 485.65 433.906C500.257 434.118 511.266 444.494 511.266 457.941Z" fill="#2F1B54"/>
<path d="M510.949 561.282V624.918L496.235 625.659V571.765C496.235 569.435 496.235 567.318 496.129 565.306C496.129 564.353 496.129 563.294 496.024 562.447C496.024 561.388 495.918 560.435 495.918 559.483C495.918 558.635 495.812 557.788 495.812 557.047C495.812 556.624 495.812 556.2 495.706 555.671C495.6 554.4 495.494 553.235 495.388 552.177C495.177 550.271 494.965 548.577 494.753 546.988C494.648 546.035 494.436 545.188 494.33 544.341C494.224 543.812 494.118 543.282 494.012 542.753C493.907 542.224 493.801 541.694 493.695 541.271C493.589 540.847 493.483 540.318 493.377 539.894C493.271 539.471 493.166 539.047 493.06 538.624C492.954 538.2 492.848 537.883 492.742 537.459C503.539 540.847 510.949 550.165 510.949 561.282Z" fill="#2F1B54"/>
<path d="M511.266 663.035V708.353L496.553 710.471V641.435C505.338 645.141 511.266 653.082 511.266 663.035Z" fill="#2F1B54"/>
<path d="M1076.52 774.529L1054.5 900H0V774.529H1076.52Z" fill="url(#paint3_linear_3881_2005137)"/>
<path d="M848.617 735.882C844.171 735.882 839.831 735.776 835.597 735.776V841.659H848.617H881.114H899.214V736.623C893.075 736.518 887.041 736.412 881.114 736.306C870.105 736.094 859.308 735.882 848.617 735.882Z" fill="#2F1B54"/>
<path d="M964.843 736.517L965.266 856.059L1022.32 841.659V740.965C1008.77 740.223 986.225 735.882 964.843 736.517Z" fill="#2F1B54"/>
<path d="M518.358 774.529L321.473 616.659L206.835 714.917L139.09 665.47L0 774L288.447 774.529L287.812 774L518.358 774.529Z" fill="url(#paint4_linear_3881_2005137)"/>
<path d="M424.785 394.835V749.118C421.821 750.07 418.857 751.023 415.999 751.87V398.541L424.785 394.835Z" fill="#2F1B54"/>
<path d="M446.591 397.271V742.553C439.075 744.776 431.771 746.894 424.785 749.118V394.835L446.591 397.271Z" fill="url(#paint5_linear_3881_2005137)"/>
<path d="M536.141 406.8L535.294 719.365C530.213 720.529 523.333 722.118 518.464 723.388V404.894L536.141 406.8Z" fill="url(#paint6_linear_3881_2005137)"/>
<path d="M540.905 407.329V718.094C538.365 718.623 537.835 718.835 535.295 719.365L536.142 406.8L540.905 407.329Z" fill="url(#paint7_linear_3881_2005137)"/>
<path d="M446.591 397.27V743.188C444.05 743.823 441.51 744.459 438.969 745.094V396.423L446.591 397.27Z" fill="url(#paint8_linear_3881_2005137)"/>
<path d="M518.358 404.894L509.784 406.588V423.953L518.358 424.8V404.894Z" fill="#2F1B54"/>
<path opacity="0.9" d="M311.841 767.965C319.145 763.2 356.087 738 384.35 702.318L384.561 702C391.23 693.529 396.946 685.059 401.603 676.694L402.45 675.212C410.389 660.6 415.258 646.2 417.058 632.435L419.704 632.541C417.693 648.106 411.765 664.094 402.133 680.4L402.027 680.612V752.506H401.709V681.247L399.91 684.212C395.676 690.988 390.701 697.976 385.091 704.753L384.879 705.071V759.176H384.561V705.388L382.762 707.506C377.152 714.282 370.906 720.953 364.238 727.518L363.92 727.835V759.6H363.603V728.259L361.909 729.847C338.939 752.082 316.922 766.588 313.217 769.024L311.841 767.965Z" fill="url(#paint9_radial_3881_2005137)"/>
<path d="M835.597 686.753V142.518L848.617 131.082V685.165L835.597 686.753Z" fill="#2F1B54"/>
<path d="M848.617 685.165V131.082L881.325 136.059V683.153L848.617 685.165Z" fill="url(#paint10_linear_3881_2005137)"/>
<path d="M870.422 134.365V683.682L881.325 683.153V136.059L870.422 134.365Z" fill="url(#paint11_linear_3881_2005137)"/>
<path d="M881.22 173.224V683.047L988.66 675V190.271L881.22 173.224ZM955.951 653.082L889.159 655.412V581.612C889.159 570.177 894.134 559.906 902.284 552.388C910.329 544.871 921.549 540.212 933.934 540.212C941.873 540.212 949.389 542.118 955.951 545.506V653.082V653.082ZM955.951 510.671H889.159V411.459C889.159 388.482 909.482 370.059 933.934 370.059C934.993 370.059 935.945 370.059 937.004 370.165C941.767 370.482 946.319 371.435 950.553 373.024C953.411 382.235 955.846 398.33 955.846 426.812V510.671H955.951ZM955.951 347.4L889.159 341.047V245.541C889.159 230.082 898.262 216.847 911.599 209.753C913.293 209.118 955.951 195.247 955.951 256.871V347.4Z" fill="url(#paint12_linear_3881_2005137)"/>
<path d="M988.766 153.847V675.106L1010.99 674.153V157.659L988.766 153.847Z" fill="url(#paint13_linear_3881_2005137)"/>
<path d="M1022.32 159.459L1010.99 157.659V674.153L1022.32 673.623V159.459Z" fill="url(#paint14_linear_3881_2005137)"/>
<path opacity="0.9" d="M837.926 367.518C837.82 368.153 831.681 422.577 811.781 487.059C811.04 489.494 810.193 491.929 809.452 494.471C806.276 504.212 802.889 514.165 799.078 524.118C791.457 543.918 782.142 565.094 770.604 585.529C770.075 586.588 769.44 587.647 768.91 588.6C757.372 608.824 743.718 628.412 727.734 645.459C727.628 645.565 727.416 645.777 727.31 645.882C712.703 661.447 696.19 674.894 677.454 684.953C634.478 669.812 605.157 648.424 585.363 627.353C584.939 626.929 584.622 626.506 584.198 626.188C574.989 616.235 567.897 606.388 562.393 597.388C560.805 594.741 559.323 592.094 557.947 589.553C557.206 588.177 556.465 586.8 555.83 585.424C540.905 555.988 539.529 532.377 539.529 532.059L534.871 532.165C534.871 532.482 536.459 560.753 555.618 594.318V697.765C551.49 696.388 547.573 694.694 543.657 692.788C531.06 686.753 519.946 678.6 510.208 669.282C509.89 668.965 509.572 668.647 509.255 668.329C500.787 660.071 493.377 650.753 486.814 641.224C486.179 640.377 485.65 639.529 485.121 638.682C475.594 624.177 468.078 608.824 462.362 594.529C461.516 592.518 460.775 590.506 460.034 588.6C448.919 559.271 445.003 535.765 444.897 535.235L440.239 535.553C440.663 537.988 445.532 567.529 460.034 601.412V734.4H462.362V606.706C468.184 619.624 475.488 633.071 484.485 645.671V733.977H486.814V648.847C493.06 657.212 499.94 665.259 507.773 672.459V729H510.102V674.577C517.088 680.718 524.603 686.329 532.966 690.988V724.447H535.295V692.471C537.094 693.424 538.894 694.377 540.693 695.224C545.456 697.553 550.431 699.565 555.512 701.259V715.235H557.841V702C565.886 704.435 574.248 706.129 582.928 706.977V711.741H585.257V707.188C588.962 707.506 592.772 707.612 596.583 707.612C601.981 707.612 607.486 707.294 613.096 706.659V707.718H615.425V657.847C624.74 664.2 635.325 670.341 647.074 675.953V697.235C641.041 699.035 634.901 700.412 628.444 701.471L629.609 704.329C635.537 703.377 641.358 702.106 647.074 700.518V702.953H649.403V699.882C659.142 697.024 668.668 693.212 677.877 688.447C683.488 690.353 689.415 692.153 695.555 693.953V698.824H697.884V694.588C699.26 695.012 700.636 695.329 702.118 695.753L703.917 693C701.906 692.471 699.895 691.941 697.884 691.412V676.588C708.045 669.6 717.784 661.341 727.205 651.918V696.494H729.533V649.482C732.709 646.2 735.884 642.706 738.954 639.106C749.434 626.824 759.384 612.953 768.699 597.388V688.235H771.027V593.471C782.883 573.141 793.68 550.165 803.418 524.859C805.429 519.459 807.441 514.165 809.24 508.871V685.8H811.569V501.882C835.28 431.153 842.372 368.365 842.478 367.729L837.926 367.518ZM557.841 698.612V598.341C557.841 598.341 557.841 598.341 557.841 598.447C563.98 608.506 572.131 619.624 582.822 630.741V703.906C574.248 703.059 565.886 701.259 557.841 698.612ZM613.096 706.13L612.461 703.8C603.146 704.859 594.043 704.965 585.257 704.224V633.177C593.09 641.012 602.299 648.847 613.096 656.471V706.13ZM649.403 696.706V677.224C656.919 680.718 664.858 684 673.432 687.071C665.81 690.882 657.766 694.059 649.403 696.706ZM681.794 686.541C686.451 684 691.003 681.247 695.555 678.282V690.777C690.791 689.4 686.24 688.024 681.794 686.541Z" fill="url(#paint15_radial_3881_2005137)"/>
<path d="M988.766 153.847V190.271L975.111 188.153V160.094L988.766 153.847Z" fill="#2F1B54"/>
<g opacity="0.4">
<path d="M458.658 756.529V774.424H416.105V762.777C418.857 762.353 421.821 761.824 424.785 761.4C431.559 760.341 438.757 759.282 446.59 758.118C450.507 757.694 454.529 757.165 458.658 756.529Z" fill="#03031D"/>
<path d="M540.905 747.318V774.529H504.809V751.024C513.383 750.071 531.59 748.165 540.905 747.318Z" fill="#03031D"/>
</g>
<path d="M568.109 820.482L579.858 812.223C593.302 802.8 608.968 797.823 625.375 797.823C637.548 797.823 649.615 800.682 660.624 806.082C671.526 800.682 683.594 797.823 695.767 797.823C707.94 797.823 720.007 800.682 730.91 806.082C741.812 800.682 753.985 797.823 766.158 797.823C782.46 797.823 798.232 802.8 811.675 812.223L823.424 820.482H809.134H568.109Z" fill="url(#paint16_linear_3881_2005137)"/>
<path d="M407.743 883.271L419.493 875.012C432.936 865.588 448.602 860.612 465.009 860.612C477.182 860.612 489.249 863.471 500.258 868.871C511.161 863.471 523.228 860.612 535.401 860.612C547.574 860.612 559.641 863.471 570.544 868.871C581.447 863.471 593.62 860.612 605.793 860.612C622.094 860.612 637.866 865.588 651.309 875.012L663.059 883.271H648.769H407.743Z" fill="url(#paint17_linear_3881_2005137)"/>
<path d="M203.66 831.812L215.409 823.553C228.852 814.129 244.519 809.153 260.926 809.153C273.099 809.153 285.166 812.012 296.174 817.412C307.077 812.012 319.144 809.153 331.317 809.153C343.49 809.153 355.558 812.012 366.46 817.412C377.363 812.012 389.536 809.153 401.709 809.153C418.01 809.153 433.782 814.129 447.226 823.553L458.975 831.812H444.685H203.66Z" fill="url(#paint18_linear_3881_2005137)"/>
<path d="M1089.64 302.506C1092.08 302.506 1094.09 300.494 1094.09 297.953C1094.09 295.518 1092.08 293.4 1089.64 293.4C1087.21 293.4 1085.2 295.412 1085.2 297.953C1085.2 300.494 1087.21 302.506 1089.64 302.506Z" fill="#5027B6"/>
<path d="M345.502 529.2C347.937 529.2 349.948 527.188 349.948 524.647C349.948 522.212 347.937 520.094 345.502 520.094C343.067 520.094 341.056 522.106 341.056 524.647C341.056 527.082 343.067 529.2 345.502 529.2Z" fill="#5027B6"/>
<path d="M1383.06 405.953C1385.5 405.953 1387.51 403.941 1387.51 401.4C1387.51 398.965 1385.5 396.847 1383.06 396.847C1380.63 396.847 1378.62 398.859 1378.62 401.4C1378.51 403.941 1380.52 405.953 1383.06 405.953Z" fill="#5027B6"/>
<path d="M469.561 321.353C471.995 321.353 474.006 319.341 474.006 316.8C474.006 314.365 471.995 312.247 469.561 312.247C467.126 312.247 465.115 314.259 465.115 316.8C465.115 319.341 467.126 321.353 469.561 321.353Z" fill="#5027B6"/>
<path d="M321.05 354.176C322.214 354.176 323.273 353.118 323.273 351.953C323.273 350.682 322.32 349.729 321.05 349.729C319.886 349.729 318.827 350.788 318.827 351.953C318.827 353.223 319.78 354.176 321.05 354.176Z" fill="#5027B6"/>
<path d="M1171.04 481.553C1172.21 481.553 1173.27 480.494 1173.27 479.329C1173.27 478.059 1172.31 477.106 1171.04 477.106C1169.88 477.106 1168.82 478.165 1168.82 479.329C1168.82 480.494 1169.77 481.553 1171.04 481.553Z" fill="#5027B6"/>
<path d="M606.639 281.012C607.804 281.012 608.862 279.953 608.862 278.788C608.862 277.518 607.91 276.565 606.639 276.565C605.475 276.565 604.417 277.623 604.417 278.788C604.417 280.059 605.369 281.012 606.639 281.012Z" fill="#5027B6"/>
<path opacity="0.76" d="M458.658 219.388C479.193 219.388 495.918 202.659 495.918 182.012C495.918 161.365 479.299 144.741 458.658 144.741C438.123 144.741 421.398 161.47 421.398 182.012C421.398 202.659 438.123 219.388 458.658 219.388Z" fill="url(#paint19_radial_3881_2005137)"/>
<path d="M458.552 186.141C460.775 186.141 462.575 184.341 462.575 182.118C462.575 179.894 460.775 178.094 458.552 178.094C456.329 178.094 454.53 179.894 454.53 182.118C454.53 184.341 456.329 186.141 458.552 186.141Z" fill="#8C29C0"/>
<path opacity="0.76" d="M1208.3 393.353C1228.84 393.353 1245.56 376.623 1245.56 355.976C1245.56 335.329 1228.94 318.706 1208.3 318.706C1187.77 318.706 1171.04 335.435 1171.04 355.976C1171.04 376.623 1187.66 393.353 1208.3 393.353Z" fill="url(#paint20_radial_3881_2005137)"/>
<path d="M1208.2 360C1210.42 360 1212.22 358.2 1212.22 355.976C1212.22 353.753 1210.42 351.953 1208.2 351.953C1205.97 351.953 1204.17 353.753 1204.17 355.976C1204.17 358.306 1205.97 360 1208.2 360Z" fill="#8C29C0"/>
<path opacity="0.76" d="M733.238 227.118C744.67 227.118 753.88 217.8 753.88 206.365C753.88 194.929 744.67 185.612 733.238 185.612C721.806 185.612 712.597 194.929 712.597 206.365C712.597 217.8 721.806 227.118 733.238 227.118Z" fill="url(#paint21_radial_3881_2005137)"/>
<path d="M733.133 208.694C734.403 208.694 735.355 207.741 735.355 206.47C735.355 205.2 734.403 204.247 733.133 204.247C731.862 204.247 730.91 205.2 730.91 206.47C730.91 207.635 731.968 208.694 733.133 208.694Z" fill="#8C29C0"/>
<path opacity="0.76" d="M1155.38 213.459C1166.81 213.459 1176.02 204.141 1176.02 192.706C1176.02 181.271 1166.81 171.953 1155.38 171.953C1143.94 171.953 1134.74 181.271 1134.74 192.706C1134.74 204.247 1143.94 213.459 1155.38 213.459Z" fill="url(#paint22_radial_3881_2005137)"/>
<path d="M1155.38 195.035C1156.65 195.035 1157.6 194.082 1157.6 192.812C1157.6 191.541 1156.65 190.588 1155.38 190.588C1154.11 190.588 1153.15 191.541 1153.15 192.812C1153.05 193.976 1154.11 195.035 1155.38 195.035Z" fill="#8C29C0"/>
<path opacity="0.76" d="M673.432 401.4C693.967 401.4 710.692 384.67 710.692 364.023C710.692 343.376 694.073 326.753 673.432 326.753C652.897 326.753 636.172 343.482 636.172 364.023C636.172 384.776 652.791 401.4 673.432 401.4Z" fill="url(#paint23_radial_3881_2005137)"/>
<path d="M673.326 368.153C675.549 368.153 677.349 366.353 677.349 364.129C677.349 361.906 675.549 360.106 673.326 360.106C671.103 360.106 669.304 361.906 669.304 364.129C669.304 366.353 671.103 368.153 673.326 368.153Z" fill="#8C29C0"/>
<path opacity="0.76" d="M1286.74 528.67C1307.27 528.67 1324 511.941 1324 491.294C1324 470.647 1307.38 454.023 1286.74 454.023C1266.2 454.023 1249.48 470.753 1249.48 491.294C1249.48 512.047 1266.2 528.67 1286.74 528.67Z" fill="url(#paint24_radial_3881_2005137)"/>
<path d="M1286.63 495.423C1288.86 495.423 1290.66 493.623 1290.66 491.4C1290.66 489.176 1288.86 487.376 1286.63 487.376C1284.41 487.376 1282.61 489.176 1282.61 491.4C1282.61 493.623 1284.41 495.423 1286.63 495.423Z" fill="#8C29C0"/>
<path opacity="0.76" d="M203.66 524.647C224.195 524.647 240.92 507.918 240.92 487.27C240.92 466.623 224.301 450 203.66 450C183.125 450 166.4 466.729 166.4 487.27C166.4 507.918 183.125 524.647 203.66 524.647Z" fill="url(#paint25_radial_3881_2005137)"/>
<path d="M203.554 491.4C205.777 491.4 207.577 489.6 207.577 487.376C207.577 485.153 205.777 483.353 203.554 483.353C201.331 483.353 199.532 485.153 199.532 487.376C199.532 489.6 201.331 491.4 203.554 491.4Z" fill="#8C29C0"/>
<path d="M978.922 245.541V349.624L955.952 347.4V256.871C955.952 195.247 913.399 209.118 911.6 209.647C918.162 206.153 925.89 204.141 933.934 204.141C935.628 204.141 937.216 204.247 938.909 204.353C961.668 206.682 978.922 224.471 978.922 245.541Z" fill="#2F1B54"/>
<path d="M978.921 411.353V510.565H955.951V426.706C955.951 398.223 953.517 382.023 950.659 372.918C967.277 379.059 978.921 393.988 978.921 411.353Z" fill="#2F1B54"/>
<path d="M978.922 581.612V652.235L955.952 653.082V545.506C969.607 552.494 978.922 566.047 978.922 581.612Z" fill="#2F1B54"/>
<path opacity="0.9" d="M1396.51 666.53C1255.51 639.953 1168.19 588.6 1114.62 541.588C1113.99 541.059 1113.46 540.53 1112.93 540.106C1095.78 524.859 1082.13 509.824 1071.33 495.953C1064.24 486.847 1058.2 477.953 1052.91 469.377C1052.07 468.106 1051.32 466.73 1050.58 465.459C1022.11 417.071 1019.57 379.377 1019.57 378.953L1013.75 379.059C1013.75 379.588 1016.6 422.471 1050.58 475.624V624.812C1013.43 605.012 984.532 580.871 962.303 556.412C961.773 555.882 961.244 555.247 960.715 554.718C945.896 538.2 934.04 521.577 924.619 506.012C917.951 494.894 912.129 483.988 907.259 473.4C906.413 471.706 905.672 469.906 904.931 468.212C882.808 418.765 878.785 379.377 878.785 378.847L872.963 379.059C873.069 379.588 877.727 425.859 905.037 481.235V691.835H907.365V485.894C910.964 492.882 914.881 499.977 919.221 507.177C931.076 526.871 944.731 544.977 960.08 561.494V682.412H962.408V564.035C976.699 579.071 992.365 592.73 1009.41 604.8C1009.51 604.906 1009.62 604.906 1009.72 605.012V684.106H1012.05V606.706C1024.23 615.177 1037.14 622.906 1050.58 629.894V675.741H1052.91V631.059C1056.72 632.965 1060.64 634.871 1064.66 636.777V678.282H1066.99V637.835C1081.39 644.4 1096.52 650.118 1112.3 654.988V677.118H1114.62V655.73C1133.36 661.447 1153.05 667.8 1173.58 671.082L1175.07 667.482C1153.37 663.988 1133.25 657.318 1114.73 651.494V548.153C1133.99 564.565 1155.8 579.812 1179.72 593.471C1180.78 594.106 1181.95 594.741 1183 595.271V672.459H1185.33V596.541C1209.68 610.094 1236.25 622.165 1265.04 632.753V668.647H1267.37V633.6C1306.11 647.682 1348.66 661.447 1394.81 670.13L1396.51 666.53ZM1112.3 650.647C1090.49 643.765 1070.8 635.4 1052.91 626.082V479.224C1056.83 485.153 1061.17 491.188 1065.93 497.33C1079.27 514.588 1094.83 530.894 1112.3 546.035V650.647Z" fill="url(#paint26_radial_3881_2005137)"/>
<path d="M1456.31 671.93L1438 677.012L1174.32 750.706C1120.97 746.471 1070.27 743.294 1022.43 740.859C1008.88 740.224 995.434 739.588 982.308 739.059C953.622 737.894 925.889 737.047 899.32 736.518C893.181 736.412 887.147 736.306 881.22 736.2C870.105 735.988 859.308 735.883 848.617 735.777C844.171 735.777 839.831 735.671 835.491 735.671C713.444 735.035 615.636 740.435 541.011 747.212C531.696 748.059 522.804 748.906 514.23 749.859C493.695 751.977 475.276 754.2 458.763 756.424C454.635 756.953 450.507 757.588 446.696 758.118C438.863 759.177 431.665 760.341 424.891 761.4C421.927 761.824 418.963 762.353 416.211 762.777C376.622 769.235 357.251 774.424 357.251 774.424H288.871C288.871 774.424 330.576 757.694 416.211 737.894C419.069 737.259 422.033 736.518 424.997 735.882C431.983 734.294 439.287 732.706 446.802 731.118C468.396 726.459 492.319 721.8 518.57 717.247C523.439 716.4 528.414 715.553 533.389 714.706C535.93 714.282 538.47 713.859 541.011 713.435C608.121 702.318 688.886 691.941 783.73 684.635C1063.29 663.141 1356.39 665.259 1446.15 666.53C1448.69 666.53 1451.13 666.635 1453.35 666.635L1456.31 671.93Z" fill="url(#paint27_linear_3881_2005137)"/>
<path d="M1460.76 679.659L1428.26 691.835C1427.73 691.835 1427.21 691.835 1426.57 691.835C930.97 675.424 557.841 717.035 557.841 717.035C557.841 717.035 913.187 664.729 1437.47 677.753C1444.88 677.965 1452.4 678.177 1459.91 678.388L1460.76 679.659Z" fill="#2F1B54"/>
<path d="M1331.62 717.035L1231.8 742.553C1200.15 740.118 1169.35 738.106 1139.39 736.306C1136.64 736.094 1134 735.988 1131.24 735.882C1115.05 734.929 1099.06 734.082 1083.4 733.341C1081.17 733.235 1078.85 733.129 1076.62 733.024C1030.47 730.906 986.543 729.424 944.731 728.576C942.191 728.576 939.756 728.471 937.322 728.471C921.973 728.153 906.942 727.941 892.123 727.835C889.688 727.835 887.148 727.835 884.713 727.835C844.807 727.518 807.123 727.729 771.663 728.365C769.122 728.365 766.688 728.471 764.147 728.471C750.281 728.682 736.732 729.106 723.5 729.424C721.171 729.529 718.737 729.529 716.408 729.635C688.357 730.482 662 731.647 637.336 733.024C634.902 733.129 632.467 733.235 630.033 733.447C622.094 733.871 614.367 734.4 606.745 734.824C604.628 734.929 602.617 735.035 600.5 735.247C466.809 743.824 392.818 756.741 385.408 758.118C393.982 756.318 490.625 736.306 652.897 721.482C654.061 721.377 655.331 721.271 656.496 721.165C667.716 720.106 679.36 719.153 691.215 718.2C692.803 718.094 694.497 717.988 696.084 717.777C729.216 715.129 764.571 712.8 802.254 710.788C804.901 710.682 807.653 710.471 810.299 710.365C821.202 709.835 832.21 709.306 843.537 708.882C845.759 708.777 847.982 708.671 850.205 708.671C894.981 706.871 942.508 705.812 992.576 705.494C995.223 705.494 997.869 705.494 1000.52 705.494C1009.72 705.494 1019.04 705.494 1028.35 705.494C1030.47 705.494 1032.48 705.494 1034.6 705.494C1090.49 705.812 1149.24 707.188 1210.63 710.047C1213.38 710.153 1216.24 710.259 1218.99 710.471C1255.62 711.847 1293.2 714.177 1331.62 717.035Z" fill="#2F1B54"/>
<path d="M1000.41 705.177L944.731 728.471C942.19 728.471 939.756 728.365 937.321 728.365L992.576 705.282C995.117 705.176 997.763 705.177 1000.41 705.177Z" fill="#662D8C"/>
<path d="M810.299 710.153L771.662 728.153C769.122 728.153 766.687 728.259 764.147 728.259L802.148 710.471C804.9 710.365 807.546 710.259 810.299 710.153Z" fill="#662D8C"/>
<path d="M660.835 720.424L637.23 732.812C634.795 732.918 632.361 733.024 629.926 733.235L652.896 721.165C654.061 721.059 655.331 720.953 656.495 720.847L660.835 720.424Z" fill="#662D8C"/>
<path d="M606.639 734.612C604.522 734.718 602.511 734.824 600.394 735.035L586.739 727.835L591.502 727.306L606.639 734.612Z" fill="#662D8C"/>
<path d="M723.5 729.318C721.171 729.423 718.737 729.423 716.408 729.529L689.416 717.882L691.109 717.776C692.697 717.671 694.391 717.565 695.978 717.353L723.5 729.318Z" fill="#662D8C"/>
<path d="M892.016 727.623C889.582 727.623 887.041 727.623 884.607 727.623L843.43 708.671C845.653 708.565 847.876 708.459 850.099 708.459L892.016 727.623Z" fill="#662D8C"/>
<path d="M1083.4 733.235C1081.17 733.129 1078.85 733.024 1076.62 732.918L1028.25 705.177C1030.37 705.177 1032.38 705.177 1034.49 705.177L1083.4 733.235Z" fill="#662D8C"/>
<path d="M1344.53 619.306L1107.95 799.941L1089.64 900H883.019L883.548 899.365L914.668 868.023L939.649 842.823L946.953 835.306L966.748 815.506L1029.31 752.294L1344.53 619.306Z" fill="url(#paint28_linear_3881_2005137)"/>
<path d="M1317.33 900L1282.82 784.27L1380.52 689.718L1344.53 619.412L1107.95 799.941L1089.64 900H1317.33Z" fill="url(#paint29_linear_3881_2005137)"/>
<path d="M1450.17 661.341L1423.5 695.859L1380.52 689.718L1344.53 619.412L1450.17 661.341Z" fill="url(#paint30_linear_3881_2005137)"/>
<path d="M1483.31 900L1423.5 695.859L1380.52 689.718L1282.82 784.27L1317.33 900H1483.31Z" fill="url(#paint31_linear_3881_2005137)"/>
<path d="M1587.78 900H1483.31L1423.5 695.859L1426.57 691.835L1437.47 677.753L1438 677.118L1446.05 666.635L1450.07 661.341L1453.24 666.741L1456.31 671.929L1459.91 678.388L1460.76 679.659L1587.78 900Z" fill="url(#paint32_linear_3881_2005137)"/>
<path d="M1107.95 799.941L1029.31 752.294L1344.53 619.412L1107.95 799.941Z" fill="url(#paint33_linear_3881_2005137)"/>
<path d="M966.007 853.835V900H738.213L804.053 819.212L812.415 808.941L813.474 807.67L833.268 813.706L844.912 817.2L897.944 833.188L904.93 835.306L923.56 841.023L966.007 853.835Z" fill="url(#paint34_linear_3881_2005137)"/>
<path d="M813.474 807.67L825.435 857.753L930.758 879.776L966.007 853.835L813.474 807.67Z" fill="url(#paint35_linear_3881_2005137)"/>
<path d="M797.808 900L825.435 857.753L813.474 807.67L738.213 900H797.808Z" fill="url(#paint36_linear_3881_2005137)"/>
<path opacity="0.8" d="M1587.78 0H0V900H1587.78V0Z" fill="url(#paint37_linear_3881_2005137)"/>
</g>
<rect width="1440" height="124" fill="url(#paint38_linear_3881_2005137)"/>
</g>
<defs>
<linearGradient id="paint0_linear_3881_2005137" x1="444.899" y1="374.998" x2="533.698" y2="867.418" gradientUnits="userSpaceOnUse">
<stop stop-color="#B73881"/>
<stop offset="1" stop-color="#150C32"/>
</linearGradient>
<linearGradient id="paint1_linear_3881_2005137" x1="494.361" y1="543.969" x2="495.11" y2="548.119" gradientUnits="userSpaceOnUse">
<stop stop-color="#B73881"/>
<stop offset="1" stop-color="#150C32"/>
</linearGradient>
<linearGradient id="paint2_linear_3881_2005137" x1="485.53" y1="431.429" x2="508.506" y2="558.837" gradientUnits="userSpaceOnUse">
<stop stop-color="#B73881"/>
<stop offset="1" stop-color="#150C32"/>
</linearGradient>
<linearGradient id="paint3_linear_3881_2005137" x1="15.1283" y1="837.243" x2="774.145" y2="837.243" gradientUnits="userSpaceOnUse">
<stop stop-color="#03031D" stop-opacity="0"/>
<stop offset="0.0666721" stop-color="#0D0629" stop-opacity="0.0666721"/>
<stop offset="0.7128" stop-color="#681F96" stop-opacity="0.7128"/>
<stop offset="1" stop-color="#8D29C1"/>
</linearGradient>
<linearGradient id="paint4_linear_3881_2005137" x1="259.201" y1="779.647" x2="259.201" y2="403.108" gradientUnits="userSpaceOnUse">
<stop stop-color="#03031D" stop-opacity="0"/>
<stop offset="0.0746967" stop-color="#180A2A" stop-opacity="0.0746967"/>
<stop offset="0.1848" stop-color="#31123A" stop-opacity="0.1848"/>
<stop offset="0.3093" stop-color="#441845" stop-opacity="0.3093"/>
<stop offset="0.4546" stop-color="#511C4E" stop-opacity="0.4546"/>
<stop offset="0.6397" stop-color="#591E53" stop-opacity="0.6397"/>
<stop offset="1" stop-color="#5B1F54"/>
</linearGradient>
<linearGradient id="paint5_linear_3881_2005137" x1="435.711" y1="395.713" x2="435.711" y2="786.246" gradientUnits="userSpaceOnUse">
<stop stop-color="#7C2864"/>
<stop offset="1" stop-color="#150C32"/>
</linearGradient>
<linearGradient id="paint6_linear_3881_2005137" x1="527.268" y1="403.447" x2="527.268" y2="784.339" gradientUnits="userSpaceOnUse">
<stop stop-color="#7C2864"/>
<stop offset="1" stop-color="#150C32"/>
</linearGradient>
<linearGradient id="paint7_linear_3881_2005137" x1="535.26" y1="563.11" x2="540.886" y2="563.11" gradientUnits="userSpaceOnUse">
<stop stop-color="#B73881"/>
<stop offset="0.075419" stop-color="#AB357B"/>
<stop offset="1" stop-color="#AB357B"/>
</linearGradient>
<linearGradient id="paint8_linear_3881_2005137" x1="439.011" y1="570.753" x2="446.63" y2="570.753" gradientUnits="userSpaceOnUse">
<stop stop-color="#B73881"/>
<stop offset="0.075419" stop-color="#AB357B"/>
<stop offset="1" stop-color="#AB357B"/>
</linearGradient>
<radialGradient id="paint9_radial_3881_2005137" cx="0" cy="0" r="1" gradientUnits="userSpaceOnUse" gradientTransform="translate(365.878 700.632) scale(61.5514 61.5689)">
<stop stop-color="#5C308D"/>
<stop offset="0.3527" stop-color="#5A2F8A" stop-opacity="0.6473"/>
<stop offset="0.5623" stop-color="#522C82" stop-opacity="0.4377"/>
<stop offset="0.7346" stop-color="#452774" stop-opacity="0.2654"/>
<stop offset="0.8856" stop-color="#321F60" stop-opacity="0.1144"/>
<stop offset="1" stop-color="#1F174B" stop-opacity="0"/>
</radialGradient>
<linearGradient id="paint10_linear_3881_2005137" x1="864.972" y1="158.929" x2="864.972" y2="856.207" gradientUnits="userSpaceOnUse">
<stop stop-color="#7C2864"/>
<stop offset="1" stop-color="#150C32"/>
</linearGradient>
<linearGradient id="paint11_linear_3881_2005137" x1="870.423" y1="409.037" x2="881.276" y2="409.037" gradientUnits="userSpaceOnUse">
<stop stop-color="#B73881"/>
<stop offset="0.075419" stop-color="#AB357B"/>
<stop offset="1" stop-color="#AB357B"/>
</linearGradient>
<linearGradient id="paint12_linear_3881_2005137" x1="879.369" y1="180.464" x2="996.911" y2="721.596" gradientUnits="userSpaceOnUse">
<stop stop-color="#B73881"/>
<stop offset="1" stop-color="#150C32"/>
</linearGradient>
<linearGradient id="paint13_linear_3881_2005137" x1="999.839" y1="158.929" x2="999.839" y2="856.207" gradientUnits="userSpaceOnUse">
<stop stop-color="#7C2864"/>
<stop offset="1" stop-color="#150C32"/>
</linearGradient>
<linearGradient id="paint14_linear_3881_2005137" x1="1010.96" y1="415.942" x2="1022.36" y2="415.942" gradientUnits="userSpaceOnUse">
<stop stop-color="#B73881"/>
<stop offset="0.075419" stop-color="#AB357B"/>
<stop offset="1" stop-color="#AB357B"/>
</linearGradient>
<radialGradient id="paint15_radial_3881_2005137" cx="0" cy="0" r="1" gradientUnits="userSpaceOnUse" gradientTransform="translate(643.521 693.904) rotate(-15.3884) scale(251.792 172.713)">
<stop stop-color="#5C308D"/>
<stop offset="0.3527" stop-color="#5A2F8A" stop-opacity="0.6473"/>
<stop offset="0.5623" stop-color="#522C82" stop-opacity="0.4377"/>
<stop offset="0.7346" stop-color="#452774" stop-opacity="0.2654"/>
<stop offset="0.8856" stop-color="#321F60" stop-opacity="0.1144"/>
<stop offset="1" stop-color="#1F174B" stop-opacity="0"/>
</radialGradient>
<linearGradient id="paint16_linear_3881_2005137" x1="695.562" y1="815.86" x2="695.562" y2="747.739" gradientUnits="userSpaceOnUse">
<stop stop-color="#03031C" stop-opacity="0"/>
<stop offset="1" stop-color="#03031C"/>
</linearGradient>
<linearGradient id="paint17_linear_3881_2005137" x1="535.26" y1="878.55" x2="535.26" y2="810.429" gradientUnits="userSpaceOnUse">
<stop stop-color="#03031C" stop-opacity="0"/>
<stop offset="1" stop-color="#03031C"/>
</linearGradient>
<linearGradient id="paint18_linear_3881_2005137" x1="331.159" y1="827.149" x2="331.159" y2="759.028" gradientUnits="userSpaceOnUse">
<stop stop-color="#03031C" stop-opacity="0"/>
<stop offset="1" stop-color="#03031C"/>
</linearGradient>
<radialGradient id="paint19_radial_3881_2005137" cx="0" cy="0" r="1" gradientUnits="userSpaceOnUse" gradientTransform="translate(458.665 182.1) scale(37.254 37.3235)">
<stop stop-color="#5C308D"/>
<stop offset="0.7495" stop-color="#1F174B" stop-opacity="0"/>
</radialGradient>
<radialGradient id="paint20_radial_3881_2005137" cx="0" cy="0" r="1" gradientUnits="userSpaceOnUse" gradientTransform="translate(1208.29 356.014) scale(37.254 37.3235)">
<stop stop-color="#5C308D"/>
<stop offset="0.7495" stop-color="#1F174B" stop-opacity="0"/>
</radialGradient>
<radialGradient id="paint21_radial_3881_2005137" cx="0" cy="0" r="1" gradientUnits="userSpaceOnUse" gradientTransform="translate(733.219 206.418) scale(20.6721 20.7107)">
<stop stop-color="#5C308D"/>
<stop offset="0.7495" stop-color="#1F174B" stop-opacity="0"/>
</radialGradient>
<radialGradient id="paint22_radial_3881_2005137" cx="0" cy="0" r="1" gradientUnits="userSpaceOnUse" gradientTransform="translate(1155.38 192.787) scale(20.6721 20.7107)">
<stop stop-color="#5C308D"/>
<stop offset="0.7495" stop-color="#1F174B" stop-opacity="0"/>
</radialGradient>
<radialGradient id="paint23_radial_3881_2005137" cx="0" cy="0" r="1" gradientUnits="userSpaceOnUse" gradientTransform="translate(673.417 364.115) scale(37.254 37.3235)">
<stop stop-color="#5C308D"/>
<stop offset="0.7495" stop-color="#1F174B" stop-opacity="0"/>
</radialGradient>
<radialGradient id="paint24_radial_3881_2005137" cx="0" cy="0" r="1" gradientUnits="userSpaceOnUse" gradientTransform="translate(1286.75 491.399) scale(37.254 37.3235)">
<stop stop-color="#5C308D"/>
<stop offset="0.7495" stop-color="#1F174B" stop-opacity="0"/>
</radialGradient>
<radialGradient id="paint25_radial_3881_2005137" cx="0" cy="0" r="1" gradientUnits="userSpaceOnUse" gradientTransform="translate(203.656 487.348) scale(37.254 37.3235)">
<stop stop-color="#5C308D"/>
<stop offset="0.7495" stop-color="#1F174B" stop-opacity="0"/>
</radialGradient>
<radialGradient id="paint26_radial_3881_2005137" cx="0" cy="0" r="1" gradientUnits="userSpaceOnUse" gradientTransform="translate(1007.57 584.72) rotate(1.35361) scale(239.052 160.45)">
<stop stop-color="#5C308D"/>
<stop offset="0.3527" stop-color="#5A2F8A" stop-opacity="0.6473"/>
<stop offset="0.5623" stop-color="#522C82" stop-opacity="0.4377"/>
<stop offset="0.7346" stop-color="#452774" stop-opacity="0.2654"/>
<stop offset="0.8856" stop-color="#321F60" stop-opacity="0.1144"/>
<stop offset="1" stop-color="#1F174B" stop-opacity="0"/>
</radialGradient>
<linearGradient id="paint27_linear_3881_2005137" x1="1128.42" y1="700.16" x2="292.684" y2="792.994" gradientUnits="userSpaceOnUse">
<stop stop-color="#B73881"/>
<stop offset="1" stop-color="#150C32"/>
</linearGradient>
<linearGradient id="paint28_linear_3881_2005137" x1="1223.17" y1="456.912" x2="1009.63" y2="1047.54" gradientUnits="userSpaceOnUse">
<stop stop-color="#7C2864"/>
<stop offset="0.017347" stop-color="#792763"/>
<stop offset="0.3258" stop-color="#4E1C4E"/>
<stop offset="0.6033" stop-color="#2F133F"/>
<stop offset="0.8374" stop-color="#1C0E35"/>
<stop offset="1" stop-color="#150C32"/>
</linearGradient>
<linearGradient id="paint29_linear_3881_2005137" x1="1235.09" y1="552.39" x2="1235.09" y2="1393.4" gradientUnits="userSpaceOnUse">
<stop stop-color="#7C2864"/>
<stop offset="1" stop-color="#150C32"/>
</linearGradient>
<linearGradient id="paint30_linear_3881_2005137" x1="1397.34" y1="678.414" x2="1397.34" y2="856.475" gradientUnits="userSpaceOnUse">
<stop stop-color="#B73881"/>
<stop offset="0.075419" stop-color="#AB357B"/>
<stop offset="1" stop-color="#AB357B"/>
</linearGradient>
<linearGradient id="paint31_linear_3881_2005137" x1="1383.02" y1="810.818" x2="1383.02" y2="1506.8" gradientUnits="userSpaceOnUse">
<stop stop-color="#7C2864"/>
<stop offset="1" stop-color="#150C32"/>
</linearGradient>
<linearGradient id="paint32_linear_3881_2005137" x1="1505.62" y1="560.37" x2="1505.62" y2="1584.75" gradientUnits="userSpaceOnUse">
<stop stop-color="#7C2864"/>
<stop offset="1" stop-color="#150C32"/>
</linearGradient>
<linearGradient id="paint33_linear_3881_2005137" x1="1580.77" y1="417.688" x2="678.314" y2="1048.91" gradientUnits="userSpaceOnUse">
<stop stop-color="#7C2864"/>
<stop offset="1" stop-color="#150C32"/>
</linearGradient>
<linearGradient id="paint34_linear_3881_2005137" x1="852.117" y1="696.493" x2="852.117" y2="1343.92" gradientUnits="userSpaceOnUse">
<stop stop-color="#7C2864"/>
<stop offset="1" stop-color="#150C32"/>
</linearGradient>
<linearGradient id="paint35_linear_3881_2005137" x1="889.754" y1="805.501" x2="889.754" y2="879.201" gradientUnits="userSpaceOnUse">
<stop stop-color="#B73881"/>
<stop offset="0.075419" stop-color="#AB357B"/>
<stop offset="1" stop-color="#AB357B"/>
</linearGradient>
<linearGradient id="paint36_linear_3881_2005137" x1="858.432" y1="740.78" x2="698.983" y2="1027.92" gradientUnits="userSpaceOnUse">
<stop stop-color="#7C2864"/>
<stop offset="1" stop-color="#150C32"/>
</linearGradient>
<linearGradient id="paint37_linear_3881_2005137" x1="793.892" y1="898.776" x2="793.892" y2="368.702" gradientUnits="userSpaceOnUse">
<stop stop-color="#020211"/>
<stop offset="1" stop-color="#020211" stop-opacity="0"/>
</linearGradient>
<linearGradient id="paint38_linear_3881_2005137" x1="720" y1="17.0196" x2="720" y2="124" gradientUnits="userSpaceOnUse">
<stop stop-color="#020211"/>
<stop offset="1" stop-color="#020211" stop-opacity="0"/>
</linearGradient>
<clipPath id="clip0_3881_2005137">
<rect width="1440" height="900" fill="white"/>
</clipPath>
</defs>
</svg>
